# Blender v2.80 (sub 75) OBJ File: 'cue2.blend'
# www.blender.org
mtllib cue.mtl
o Cylinder
v -0.090355 0.020040 -0.000000
v -3.503393 0.049636 0.000000
v -0.090355 0.019655 0.003909
v -3.503393 0.048682 0.009684
v -0.090355 0.018515 0.007669
v -3.503393 0.045858 0.018995
v -0.090355 0.016663 0.011133
v -3.503393 0.041271 0.027576
v -0.090355 0.014170 0.014170
v -3.503393 0.035098 0.035098
v -0.090355 0.011134 0.016662
v -3.503393 0.027576 0.041271
v -0.090355 0.007669 0.018514
v -3.503393 0.018995 0.045858
v -0.090355 0.003910 0.019655
v -3.503393 0.009683 0.048682
v -0.090355 0.000000 0.020040
v -3.503393 -0.000000 0.049636
v -0.090355 -0.003909 0.019655
v -3.503393 -0.009684 0.048682
v -0.090355 -0.007669 0.018514
v -3.503393 -0.018995 0.045858
v -0.090355 -0.011133 0.016662
v -3.503393 -0.027576 0.041271
v -0.090355 -0.014170 0.014170
v -3.503393 -0.035098 0.035098
v -0.090355 -0.016662 0.011133
v -3.503393 -0.041271 0.027576
v -0.090355 -0.018514 0.007669
v -3.503393 -0.045858 0.018995
v -0.090355 -0.019655 0.003909
v -3.503393 -0.048682 0.009684
v -0.090355 -0.020040 -0.000000
v -3.503393 -0.049636 0.000000
v -0.090355 -0.019655 -0.003910
v -3.503393 -0.048682 -0.009683
v -0.090355 -0.018514 -0.007669
v -3.503393 -0.045858 -0.018995
v -0.090355 -0.016662 -0.011134
v -3.503393 -0.041271 -0.027576
v -0.090355 -0.014170 -0.014170
v -3.503393 -0.035098 -0.035098
v -0.090355 -0.011133 -0.016663
v -3.503393 -0.027576 -0.041271
v -0.090355 -0.007669 -0.018515
v -3.503393 -0.018995 -0.045858
v -0.090355 -0.003909 -0.019655
v -3.503393 -0.009683 -0.048682
v -0.090355 0.000000 -0.020040
v -3.503393 0.000000 -0.049636
v -0.090355 0.003910 -0.019655
v -3.503393 0.009684 -0.048682
v -0.090355 0.007669 -0.018515
v -3.503393 0.018995 -0.045858
v -0.090355 0.011134 -0.016663
v -3.503393 0.027576 -0.041271
v -0.090355 0.014170 -0.014170
v -3.503393 0.035098 -0.035098
v -0.090355 0.016663 -0.011134
v -3.503393 0.041271 -0.027576
v -0.090355 0.018515 -0.007669
v -3.503393 0.045858 -0.018995
v -0.090355 0.019655 -0.003910
v -3.503393 0.048682 -0.009683
v -0.014848 0.020040 -0.000000
v -0.014848 0.019655 0.003909
v -0.014848 0.018515 0.007668
v -0.014848 0.016663 0.011133
v -0.014848 0.014170 0.014170
v -0.014848 0.011134 0.016662
v -0.014848 0.007669 0.018514
v -0.014848 0.003910 0.019654
v -0.014848 0.000000 0.020039
v -0.014848 -0.003909 0.019654
v -0.014848 -0.007669 0.018514
v -0.014848 -0.011133 0.016662
v -0.014848 -0.014170 0.014170
v -0.014848 -0.016662 0.011133
v -0.014848 -0.018514 0.007668
v -0.014848 -0.019655 0.003909
v -0.014848 -0.020040 -0.000000
v -0.014848 -0.019655 -0.003910
v -0.014848 -0.018514 -0.007669
v -0.014848 -0.016662 -0.011134
v -0.014848 -0.014170 -0.014171
v -0.014848 -0.011133 -0.016663
v -0.014848 -0.007669 -0.018515
v -0.014848 -0.003909 -0.019655
v -0.014848 0.000000 -0.020040
v -0.014848 0.003910 -0.019655
v -0.014848 0.007669 -0.018515
v -0.014848 0.011134 -0.016663
v -0.014848 0.014170 -0.014171
v -0.014848 0.016663 -0.011134
v -0.014848 0.018515 -0.007669
v -0.014848 0.019655 -0.003910
v -1.951218 0.033488 -0.000000
v -1.951218 0.032844 0.006533
v -1.951218 0.030939 0.012815
v -1.951218 0.027844 0.018605
v -1.951218 0.023680 0.023679
v -1.951218 0.018605 0.027844
v -1.951218 0.012815 0.030939
v -1.951218 0.006533 0.032844
v -1.951218 0.000000 0.033488
v -1.951218 -0.006533 0.032844
v -1.951218 -0.012815 0.030939
v -1.951218 -0.018605 0.027844
v -1.951218 -0.023679 0.023679
v -1.951218 -0.027844 0.018605
v -1.951218 -0.030939 0.012815
v -1.951218 -0.032844 0.006533
v -1.951218 -0.033488 -0.000000
v -1.951218 -0.032844 -0.006533
v -1.951218 -0.030939 -0.012815
v -1.951218 -0.027844 -0.018605
v -1.951218 -0.023679 -0.023680
v -1.951218 -0.018605 -0.027844
v -1.951218 -0.012815 -0.030939
v -1.951218 -0.006533 -0.032844
v -1.951218 0.000000 -0.033488
v -1.951218 0.006533 -0.032844
v -1.951218 0.012815 -0.030939
v -1.951218 0.018605 -0.027844
v -1.951218 0.023680 -0.023680
v -1.951218 0.027844 -0.018605
v -1.951218 0.030939 -0.012815
v -1.951218 0.032844 -0.006533
v -0.000063 0.020040 -0.000001
v -0.000063 0.019655 0.003909
v -0.000063 0.018515 0.007668
v -0.000063 0.016663 0.011133
v -0.000063 0.014170 0.014170
v -0.000063 0.011134 0.016662
v -0.000063 0.007669 0.018514
v -0.000063 0.003910 0.019654
v -0.000063 0.000000 0.020039
v -0.000063 -0.003909 0.019654
v -0.000063 -0.007669 0.018514
v -0.000063 -0.011133 0.016662
v -0.000063 -0.014170 0.014170
v -0.000063 -0.016662 0.011133
v -0.000063 -0.018514 0.007668
v -0.000063 -0.019655 0.003909
v -0.000063 -0.020040 -0.000001
v -0.000063 -0.019655 -0.003910
v -0.000063 -0.018514 -0.007669
v -0.000063 -0.016662 -0.011134
v -0.000063 -0.014170 -0.014171
v -0.000063 -0.011133 -0.016663
v -0.000063 -0.007669 -0.018515
v -0.000063 -0.003909 -0.019655
v -0.000063 0.000000 -0.020040
v -0.000063 0.003910 -0.019655
v -0.000063 0.007669 -0.018515
v -0.000063 0.011134 -0.016663
v -0.000063 0.014170 -0.014171
v -0.000063 0.016663 -0.011134
v -0.000063 0.018515 -0.007669
v -0.000063 0.019655 -0.003910
v -0.000063 0.000000 -0.000001
v -3.503394 -0.000000 0.000000
vt 0.515493 0.952790
vt 0.515493 0.000298
vt 0.532117 0.000165
vt 0.532117 0.952657
vt 0.000165 0.956895
vt 0.000165 0.004404
vt 0.016789 0.004272
vt 0.016789 0.956762
vt 0.033412 0.004140
vt 0.033412 0.956630
vt 0.050036 0.004007
vt 0.050036 0.956497
vt 0.066659 0.003875
vt 0.066659 0.956365
vt 0.083283 0.003742
vt 0.083283 0.956233
vt 0.099906 0.003610
vt 0.099906 0.956100
vt 0.116529 0.003477
vt 0.116530 0.955968
vt 0.133153 0.003345
vt 0.133153 0.955835
vt 0.149776 0.003212
vt 0.149776 0.955703
vt 0.166400 0.003080
vt 0.166400 0.955571
vt 0.183023 0.002947
vt 0.183023 0.955438
vt 0.199647 0.002815
vt 0.199647 0.955306
vt 0.216270 0.002682
vt 0.216270 0.955173
vt 0.232894 0.002550
vt 0.232894 0.955041
vt 0.249517 0.002417
vt 0.249517 0.954908
vt 0.266141 0.002285
vt 0.266141 0.954776
vt 0.282764 0.002152
vt 0.282764 0.954644
vt 0.299388 0.002020
vt 0.299388 0.954511
vt 0.316011 0.001887
vt 0.316011 0.954379
vt 0.332635 0.001755
vt 0.332635 0.954246
vt 0.349258 0.001622
vt 0.349258 0.954114
vt 0.365882 0.001490
vt 0.365882 0.953981
vt 0.382505 0.001358
vt 0.382505 0.953849
vt 0.399129 0.001225
vt 0.399129 0.953717
vt 0.415752 0.001093
vt 0.415752 0.953584
vt 0.432376 0.000960
vt 0.432376 0.953452
vt 0.448999 0.000828
vt 0.448999 0.953319
vt 0.465623 0.000695
vt 0.465623 0.953187
vt 0.482246 0.000563
vt 0.482246 0.953055
vt 0.498870 0.000430
vt 0.498870 0.952922
vt 0.815488 0.864762
vt 0.815488 0.869319
vt 0.653317 0.869319
vt 0.653317 0.864762
vt 0.847878 0.882989
vt 0.847878 0.887546
vt 0.816124 0.887546
vt 0.816124 0.882989
vt 0.815488 0.905775
vt 0.815489 0.910332
vt 0.653317 0.910332
vt 0.653317 0.905775
vt 0.815488 0.946787
vt 0.815488 0.951344
vt 0.653317 0.951344
vt 0.653317 0.946787
vt 0.815489 0.992356
vt 0.815489 0.996913
vt 0.653318 0.996913
vt 0.653318 0.992356
vt 0.815489 0.987799
vt 0.653318 0.987799
vt 0.815488 0.887547
vt 0.815488 0.892104
vt 0.653317 0.892104
vt 0.653317 0.887547
vt 0.815488 0.928559
vt 0.815488 0.933116
vt 0.653317 0.933116
vt 0.653317 0.928559
vt 0.815488 0.969571
vt 0.815488 0.974128
vt 0.653318 0.974128
vt 0.653317 0.969572
vt 0.815488 0.873876
vt 0.653317 0.873876
vt 0.815489 0.914889
vt 0.653317 0.914889
vt 0.815488 0.955901
vt 0.653317 0.955901
vt 0.815488 0.851092
vt 0.815488 0.855649
vt 0.653317 0.855648
vt 0.653317 0.851091
vt 0.815489 0.896661
vt 0.653317 0.896661
vt 0.815488 0.937673
vt 0.653317 0.937673
vt 0.815488 0.978685
vt 0.653317 0.978685
vt 0.815488 0.878433
vt 0.653317 0.878433
vt 0.815488 0.919445
vt 0.653317 0.919445
vt 0.815488 0.960457
vt 0.653317 0.960458
vt 0.815488 0.860205
vt 0.653317 0.860205
vt 0.815489 0.901218
vt 0.653317 0.901218
vt 0.815488 0.942230
vt 0.653317 0.942230
vt 0.815489 0.983242
vt 0.653318 0.983242
vt 0.815488 0.882990
vt 0.653317 0.882990
vt 0.815488 0.924002
vt 0.653317 0.924002
vt 0.815488 0.965014
vt 0.653317 0.965015
vt 0.561659 0.003894
vt 0.561659 0.840789
vt 0.547053 0.840913
vt 0.547053 0.004019
vt 0.576265 0.003770
vt 0.576265 0.840664
vt 0.590871 0.003646
vt 0.590871 0.840540
vt 0.605477 0.003522
vt 0.605477 0.840416
vt 0.620082 0.003397
vt 0.620082 0.840291
vt 0.634688 0.003273
vt 0.634688 0.840167
vt 0.649294 0.003149
vt 0.649294 0.840043
vt 0.663900 0.003025
vt 0.663900 0.839918
vt 0.678506 0.002900
vt 0.678506 0.839794
vt 0.693112 0.002776
vt 0.693112 0.839670
vt 0.707718 0.002652
vt 0.707718 0.839545
vt 0.722324 0.002527
vt 0.722324 0.839421
vt 0.736929 0.002403
vt 0.736929 0.839297
vt 0.751535 0.002279
vt 0.751535 0.839172
vt 0.766141 0.002155
vt 0.766141 0.839048
vt 0.780747 0.002030
vt 0.780747 0.838924
vt 0.795353 0.001906
vt 0.795353 0.838799
vt 0.809959 0.001782
vt 0.809959 0.838675
vt 0.824564 0.001657
vt 0.824565 0.838551
vt 0.839170 0.001533
vt 0.839170 0.838426
vt 0.853776 0.001409
vt 0.853776 0.838302
vt 0.868382 0.001284
vt 0.868382 0.838178
vt 0.882988 0.001160
vt 0.882988 0.838053
vt 0.897594 0.001036
vt 0.897594 0.837929
vt 0.912200 0.000911
vt 0.912200 0.837804
vt 0.926805 0.000787
vt 0.926806 0.837680
vt 0.941411 0.000663
vt 0.941411 0.837556
vt 0.956017 0.000538
vt 0.956017 0.837432
vt 0.970623 0.000414
vt 0.970623 0.837307
vt 0.985229 0.000290
vt 0.985229 0.837183
vt 0.999835 0.000165
vt 0.999835 0.837058
vt 0.532447 0.841037
vt 0.532447 0.004143
vt 0.640865 0.880517
vt 0.642989 0.891195
vt 0.587718 0.896639
vt 0.847877 0.946786
vt 0.847878 0.951343
vt 0.816123 0.951343
vt 0.816123 0.946786
vt 0.847878 0.892103
vt 0.816124 0.892103
vt 0.847878 0.955900
vt 0.816123 0.955900
vt 0.847878 0.896660
vt 0.816124 0.896660
vt 0.847878 0.960457
vt 0.816123 0.960457
vt 0.847878 0.901217
vt 0.816124 0.901217
vt 0.847878 0.965014
vt 0.816123 0.965014
vt 0.847878 0.905774
vt 0.816124 0.905774
vt 0.847878 0.969570
vt 0.816123 0.969571
vt 0.847878 0.910331
vt 0.816124 0.910331
vt 0.847878 0.992355
vt 0.847878 0.996912
vt 0.816123 0.996912
vt 0.816123 0.992356
vt 0.847878 0.974127
vt 0.816123 0.974127
vt 0.847878 0.914887
vt 0.816124 0.914887
vt 0.847878 0.851091
vt 0.847878 0.855648
vt 0.816124 0.855648
vt 0.816124 0.851091
vt 0.847878 0.978685
vt 0.816123 0.978685
vt 0.847878 0.919444
vt 0.816124 0.919444
vt 0.847878 0.860205
vt 0.816124 0.860205
vt 0.847878 0.983241
vt 0.816123 0.983242
vt 0.847878 0.924001
vt 0.816124 0.924001
vt 0.847878 0.864762
vt 0.816124 0.864762
vt 0.847878 0.987798
vt 0.816123 0.987798
vt 0.847878 0.928558
vt 0.816124 0.928558
vt 0.847878 0.869319
vt 0.816124 0.869319
vt 0.847878 0.933115
vt 0.816124 0.933115
vt 0.847878 0.873876
vt 0.816124 0.873876
vt 0.847878 0.937672
vt 0.816123 0.937672
vt 0.847878 0.878433
vt 0.816124 0.878433
vt 0.847877 0.942229
vt 0.816123 0.942229
vt 0.886160 0.877786
vt 0.896777 0.870693
vt 0.927481 0.928136
vt 0.908573 0.865806
vt 0.921097 0.863315
vt 0.933865 0.863315
vt 0.946389 0.865806
vt 0.958185 0.870693
vt 0.968802 0.877786
vt 0.977830 0.886815
vt 0.984924 0.897432
vt 0.989811 0.909228
vt 0.992302 0.921752
vt 0.992302 0.934520
vt 0.989811 0.947043
vt 0.984924 0.958840
vt 0.977830 0.969457
vt 0.968802 0.978485
vt 0.958185 0.985579
vt 0.946389 0.990466
vt 0.933865 0.992956
vt 0.921097 0.992956
vt 0.908573 0.990466
vt 0.896777 0.985579
vt 0.886160 0.978485
vt 0.877131 0.969457
vt 0.870038 0.958840
vt 0.865151 0.947043
vt 0.862660 0.934520
vt 0.862660 0.921752
vt 0.865151 0.909228
vt 0.870038 0.897432
vt 0.877132 0.886815
vt 0.642989 0.902082
vt 0.640865 0.912761
vt 0.636698 0.922819
vt 0.630650 0.931872
vt 0.622951 0.939570
vt 0.613899 0.945619
vt 0.603840 0.949786
vt 0.593162 0.951910
vt 0.582274 0.951910
vt 0.571596 0.949786
vt 0.561538 0.945619
vt 0.552485 0.939570
vt 0.544786 0.931872
vt 0.538738 0.922819
vt 0.534571 0.912761
vt 0.532447 0.902082
vt 0.532447 0.891195
vt 0.534571 0.880517
vt 0.538738 0.870458
vt 0.544786 0.861406
vt 0.552485 0.853707
vt 0.561538 0.847658
vt 0.571596 0.843492
vt 0.582274 0.841368
vt 0.593162 0.841368
vt 0.603840 0.843492
vt 0.613899 0.847658
vt 0.622951 0.853707
vt 0.630650 0.861406
vt 0.636698 0.870458
vn 0.0104 0.9951 0.0980
vn 0.0104 0.9569 0.2903
vn 0.0104 0.8819 0.4714
vn 0.0104 0.7730 0.6344
vn 0.0104 0.6344 0.7730
vn 0.0104 0.4714 0.8819
vn 0.0104 0.2903 0.9569
vn 0.0104 0.0980 0.9951
vn 0.0104 -0.0980 0.9951
vn 0.0104 -0.2903 0.9569
vn 0.0104 -0.4714 0.8819
vn 0.0104 -0.6344 0.7730
vn 0.0104 -0.7730 0.6344
vn 0.0104 -0.8819 0.4714
vn 0.0104 -0.9569 0.2903
vn 0.0104 -0.9951 0.0980
vn 0.0104 -0.9951 -0.0980
vn 0.0104 -0.9569 -0.2903
vn 0.0104 -0.8819 -0.4714
vn 0.0104 -0.7730 -0.6344
vn 0.0104 -0.6344 -0.7730
vn 0.0104 -0.4714 -0.8819
vn 0.0104 -0.2903 -0.9569
vn 0.0104 -0.0980 -0.9951
vn 0.0104 0.0980 -0.9951
vn 0.0104 0.2903 -0.9569
vn 0.0104 0.4714 -0.8819
vn 0.0104 0.6344 -0.7730
vn 0.0104 0.7730 -0.6344
vn 0.0104 0.8819 -0.4714
vn 0.0104 0.9569 -0.2903
vn 0.0104 0.9951 -0.0980
vn 0.0000 0.6344 0.7730
vn 0.0000 -0.0980 0.9952
vn 0.0000 -0.8819 0.4714
vn -0.0000 -0.2903 -0.9569
vn 0.0000 0.9952 0.0980
vn -0.0000 0.9952 -0.0980
vn 0.0000 -0.2903 0.9569
vn -0.0000 -0.8819 -0.4714
vn -0.0000 0.6344 -0.7730
vn 0.0000 0.4714 0.8819
vn 0.0000 -0.9569 0.2903
vn -0.0000 -0.0980 -0.9952
vn 0.0000 0.9569 0.2903
vn 0.0000 -0.4714 0.8819
vn -0.0000 -0.7730 -0.6344
vn -0.0000 0.7730 -0.6344
vn 0.0000 0.2903 0.9569
vn 0.0000 -0.9952 0.0980
vn -0.0000 0.0980 -0.9952
vn 0.0000 0.8819 0.4714
vn 0.0000 -0.6344 0.7730
vn -0.0000 -0.6344 -0.7730
vn -0.0000 0.8819 -0.4714
vn 0.0000 0.0980 0.9952
vn -0.0000 -0.9952 -0.0980
vn -0.0000 0.2903 -0.9569
vn 0.0000 0.7730 0.6344
vn 0.0000 -0.7730 0.6344
vn -0.0000 -0.4714 -0.8819
vn -0.0000 0.9569 -0.2903
vn -0.0000 -0.9569 -0.2903
vn -0.0000 0.4714 -0.8819
vn 0.0072 0.9952 -0.0980
vn 0.0072 0.9569 -0.2903
vn 0.0072 0.8819 -0.4714
vn 0.0072 0.7730 -0.6344
vn 0.0072 0.6344 -0.7730
vn 0.0072 0.4714 -0.8819
vn 0.0072 0.2903 -0.9569
vn 0.0072 0.0980 -0.9952
vn 0.0072 -0.0980 -0.9952
vn 0.0072 -0.2903 -0.9569
vn 0.0072 -0.4714 -0.8819
vn 0.0072 -0.6344 -0.7730
vn 0.0072 -0.7730 -0.6344
vn 0.0072 -0.8819 -0.4714
vn 0.0072 -0.9569 -0.2903
vn 0.0072 -0.9952 -0.0980
vn 0.0072 -0.9952 0.0980
vn 0.0072 -0.9569 0.2903
vn 0.0072 -0.8819 0.4714
vn 0.0072 -0.7730 0.6344
vn 0.0072 -0.6344 0.7730
vn 0.0072 -0.4714 0.8819
vn 0.0072 -0.2903 0.9569
vn 0.0072 -0.0980 0.9952
vn 0.0072 0.0980 0.9952
vn 0.0072 0.2903 0.9569
vn 0.0072 0.4714 0.8819
vn 0.0072 0.6344 0.7730
vn 0.0072 0.7730 0.6344
vn 0.0072 0.8819 0.4714
vn 0.0072 0.9569 0.2903
vn 0.0072 0.9952 0.0980
vn -1.0000 0.0000 0.0000
vn 1.0000 0.0000 0.0000
vn -1.0000 -0.0001 -0.0000
vn -1.0000 0.0001 0.0000
usemtl CueMaterial
s off
f 97/1/1 2/2/1 4/3/1 98/4/1
f 98/5/2 4/6/2 6/7/2 99/8/2
f 99/8/3 6/7/3 8/9/3 100/10/3
f 100/10/4 8/9/4 10/11/4 101/12/4
f 101/12/5 10/11/5 12/13/5 102/14/5
f 102/14/6 12/13/6 14/15/6 103/16/6
f 103/16/7 14/15/7 16/17/7 104/18/7
f 104/18/8 16/17/8 18/19/8 105/20/8
f 105/20/9 18/19/9 20/21/9 106/22/9
f 106/22/10 20/21/10 22/23/10 107/24/10
f 107/24/11 22/23/11 24/25/11 108/26/11
f 108/26/12 24/25/12 26/27/12 109/28/12
f 109/28/13 26/27/13 28/29/13 110/30/13
f 110/30/14 28/29/14 30/31/14 111/32/14
f 111/32/15 30/31/15 32/33/15 112/34/15
f 112/34/16 32/33/16 34/35/16 113/36/16
f 113/36/17 34/35/17 36/37/17 114/38/17
f 114/38/18 36/37/18 38/39/18 115/40/18
f 115/40/19 38/39/19 40/41/19 116/42/19
f 116/42/20 40/41/20 42/43/20 117/44/20
f 117/44/21 42/43/21 44/45/21 118/46/21
f 118/46/22 44/45/22 46/47/22 119/48/22
f 119/48/23 46/47/23 48/49/23 120/50/23
f 120/50/24 48/49/24 50/51/24 121/52/24
f 121/52/25 50/51/25 52/53/25 122/54/25
f 122/54/26 52/53/26 54/55/26 123/56/26
f 123/56/27 54/55/27 56/57/27 124/58/27
f 124/58/28 56/57/28 58/59/28 125/60/28
f 125/60/29 58/59/29 60/61/29 126/62/29
f 126/62/30 60/61/30 62/63/30 127/64/30
f 127/64/31 62/63/31 64/65/31 128/66/31
f 128/66/32 64/65/32 2/2/32 97/1/32
f 9/67/33 11/68/33 70/69/33 69/70/33
f 73/71/34 74/72/34 138/73/34 137/74/34
f 27/75/35 29/76/35 79/77/35 78/78/35
f 45/79/36 47/80/36 88/81/36 87/82/36
f 1/83/37 3/84/37 66/85/37 65/86/37
f 63/87/38 1/83/38 65/86/38 96/88/38
f 19/89/39 21/90/39 75/91/39 74/92/39
f 37/93/40 39/94/40 84/95/40 83/96/40
f 55/97/41 57/98/41 93/99/41 92/100/41
f 11/68/42 13/101/42 71/102/42 70/69/42
f 29/76/43 31/103/43 80/104/43 79/77/43
f 47/80/44 49/105/44 89/106/44 88/81/44
f 3/107/45 5/108/45 67/109/45 66/110/45
f 21/90/46 23/111/46 76/112/46 75/91/46
f 39/94/47 41/113/47 85/114/47 84/95/47
f 57/98/48 59/115/48 94/116/48 93/99/48
f 13/101/49 15/117/49 72/118/49 71/102/49
f 31/103/50 33/119/50 81/120/50 80/104/50
f 49/105/51 51/121/51 90/122/51 89/106/51
f 5/108/52 7/123/52 68/124/52 67/109/52
f 23/111/53 25/125/53 77/126/53 76/112/53
f 41/113/54 43/127/54 86/128/54 85/114/54
f 59/115/55 61/129/55 95/130/55 94/116/55
f 15/117/56 17/131/56 73/132/56 72/118/56
f 33/119/57 35/133/57 82/134/57 81/120/57
f 51/121/58 53/135/58 91/136/58 90/122/58
f 7/123/59 9/67/59 69/70/59 68/124/59
f 25/125/60 27/75/60 78/78/60 77/126/60
f 43/127/61 45/79/61 87/82/61 86/128/61
f 61/129/62 63/87/62 96/88/62 95/130/62
f 17/131/34 19/89/34 74/92/34 73/132/34
f 35/133/63 37/93/63 83/96/63 82/134/63
f 53/135/64 55/97/64 92/100/64 91/136/64
f 63/137/65 128/138/65 97/139/65 1/140/65
f 61/141/66 127/142/66 128/138/66 63/137/66
f 59/143/67 126/144/67 127/142/67 61/141/67
f 57/145/68 125/146/68 126/144/68 59/143/68
f 55/147/69 124/148/69 125/146/69 57/145/69
f 53/149/70 123/150/70 124/148/70 55/147/70
f 51/151/71 122/152/71 123/150/71 53/149/71
f 49/153/72 121/154/72 122/152/72 51/151/72
f 47/155/73 120/156/73 121/154/73 49/153/73
f 45/157/74 119/158/74 120/156/74 47/155/74
f 43/159/75 118/160/75 119/158/75 45/157/75
f 41/161/76 117/162/76 118/160/76 43/159/76
f 39/163/77 116/164/77 117/162/77 41/161/77
f 37/165/78 115/166/78 116/164/78 39/163/78
f 35/167/79 114/168/79 115/166/79 37/165/79
f 33/169/80 113/170/80 114/168/80 35/167/80
f 31/171/81 112/172/81 113/170/81 33/169/81
f 29/173/82 111/174/82 112/172/82 31/171/82
f 27/175/83 110/176/83 111/174/83 29/173/83
f 25/177/84 109/178/84 110/176/84 27/175/84
f 23/179/85 108/180/85 109/178/85 25/177/85
f 21/181/86 107/182/86 108/180/86 23/179/86
f 19/183/87 106/184/87 107/182/87 21/181/87
f 17/185/88 105/186/88 106/184/88 19/183/88
f 15/187/89 104/188/89 105/186/89 17/185/89
f 13/189/90 103/190/90 104/188/90 15/187/90
f 11/191/91 102/192/91 103/190/91 13/189/91
f 9/193/92 101/194/92 102/192/92 11/191/92
f 7/195/93 100/196/93 101/194/93 9/193/93
f 5/197/94 99/198/94 100/196/94 7/195/94
f 3/199/95 98/200/95 99/198/95 5/197/95
f 1/140/96 97/139/96 98/201/96 3/202/96
f 4/203/97 2/204/97 162/205/97
f 87/206/36 88/207/36 152/208/36 151/209/36
f 74/72/39 75/210/39 139/211/39 138/73/39
f 88/207/44 89/212/44 153/213/44 152/208/44
f 75/210/46 76/214/46 140/215/46 139/211/46
f 89/212/51 90/216/51 154/217/51 153/213/51
f 76/214/53 77/218/53 141/219/53 140/215/53
f 90/216/58 91/220/58 155/221/58 154/217/58
f 77/218/60 78/222/60 142/223/60 141/219/60
f 91/220/64 92/224/64 156/225/64 155/221/64
f 78/222/35 79/226/35 143/227/35 142/223/35
f 65/228/37 66/229/37 130/230/37 129/231/37
f 92/224/41 93/232/41 157/233/41 156/225/41
f 79/226/43 80/234/43 144/235/43 143/227/43
f 66/236/45 67/237/45 131/238/45 130/239/45
f 93/232/48 94/240/48 158/241/48 157/233/48
f 80/234/50 81/242/50 145/243/50 144/235/50
f 67/237/52 68/244/52 132/245/52 131/238/52
f 94/240/55 95/246/55 159/247/55 158/241/55
f 81/242/57 82/248/57 146/249/57 145/243/57
f 68/244/59 69/250/59 133/251/59 132/245/59
f 95/246/62 96/252/62 160/253/62 159/247/62
f 82/248/63 83/254/63 147/255/63 146/249/63
f 69/250/33 70/256/33 134/257/33 133/251/33
f 96/252/38 65/228/38 129/231/38 160/253/38
f 83/254/40 84/258/40 148/259/40 147/255/40
f 70/256/42 71/260/42 135/261/42 134/257/42
f 84/258/47 85/262/47 149/263/47 148/259/47
f 71/260/49 72/264/49 136/265/49 135/261/49
f 85/262/54 86/266/54 150/267/54 149/263/54
f 72/264/56 73/71/56 137/74/56 136/265/56
f 86/266/61 87/206/61 151/209/61 150/267/61
f 129/268/98 130/269/98 161/270/98
f 130/269/98 131/271/98 161/270/98
f 131/271/98 132/272/98 161/270/98
f 132/272/98 133/273/98 161/270/98
f 133/273/98 134/274/98 161/270/98
f 134/274/98 135/275/98 161/270/98
f 135/275/98 136/276/98 161/270/98
f 136/276/98 137/277/98 161/270/98
f 137/277/98 138/278/98 161/270/98
f 138/278/98 139/279/98 161/270/98
f 139/279/98 140/280/98 161/270/98
f 140/280/98 141/281/98 161/270/98
f 141/281/98 142/282/98 161/270/98
f 142/282/98 143/283/98 161/270/98
f 143/283/98 144/284/98 161/270/98
f 144/284/98 145/285/98 161/270/98
f 145/285/98 146/286/98 161/270/98
f 146/286/98 147/287/98 161/270/98
f 147/287/98 148/288/98 161/270/98
f 148/288/98 149/289/98 161/270/98
f 149/289/98 150/290/98 161/270/98
f 150/290/98 151/291/98 161/270/98
f 151/291/98 152/292/98 161/270/98
f 152/292/98 153/293/98 161/270/98
f 153/293/98 154/294/98 161/270/98
f 154/294/98 155/295/98 161/270/98
f 155/295/98 156/296/98 161/270/98
f 156/296/98 157/297/98 161/270/98
f 157/297/98 158/298/98 161/270/98
f 158/298/98 159/299/98 161/270/98
f 159/299/98 160/300/98 161/270/98
f 160/300/98 129/268/98 161/270/98
f 2/204/97 64/301/97 162/205/97
f 64/301/97 62/302/97 162/205/97
f 62/302/97 60/303/97 162/205/97
f 60/303/97 58/304/97 162/205/97
f 58/304/97 56/305/97 162/205/97
f 56/305/97 54/306/97 162/205/97
f 54/306/97 52/307/97 162/205/97
f 52/307/97 50/308/97 162/205/97
f 50/308/97 48/309/97 162/205/97
f 48/309/99 46/310/99 162/205/99
f 46/310/97 44/311/97 162/205/97
f 44/311/97 42/312/97 162/205/97
f 42/312/97 40/313/97 162/205/97
f 40/313/97 38/314/97 162/205/97
f 38/314/97 36/315/97 162/205/97
f 36/315/97 34/316/97 162/205/97
f 34/316/97 32/317/97 162/205/97
f 32/317/97 30/318/97 162/205/97
f 30/318/97 28/319/97 162/205/97
f 28/319/97 26/320/97 162/205/97
f 26/320/97 24/321/97 162/205/97
f 24/321/97 22/322/97 162/205/97
f 22/322/99 20/323/99 162/205/99
f 20/323/97 18/324/97 162/205/97
f 18/324/97 16/325/97 162/205/97
f 16/325/97 14/326/97 162/205/97
f 14/326/100 12/327/100 162/205/100
f 12/327/97 10/328/97 162/205/97
f 10/328/97 8/329/97 162/205/97
f 8/329/97 6/330/97 162/205/97
f 6/330/97 4/203/97 162/205/97
